<?xml version="1.0" encoding="utf-8"?>
<!-- Generator: Adobe Illustrator 23.0.6, SVG Export Plug-In . SVG Version: 6.00 Build 0)  -->
<svg version="1.1" id="Vrstva_1" xmlns="http://www.w3.org/2000/svg" xmlns:xlink="http://www.w3.org/1999/xlink" x="0px" y="0px"
	 viewBox="0 0 600 161" style="enable-background:new 0 0 600 161;" xml:space="preserve" width="200" height="54">
<style type="text/css">
	.st0{fill:#FFFFFF;}
</style>
<path class="st0" d="M158.6,80.6c0,24.2-10.7,45.8-27.7,60.4c1-4.9,1.5-9.9,1.5-15.1c0-15.8-4.7-30.5-12.7-42.9
	c-3.2,4.4-6.8,8.5-10.7,12.1c5.1,9.1,8,19.6,8,30.8c0,4.5-0.5,8.9-1.4,13.2c-0.1,0.5-0.2,0.9-0.3,1.4c-0.1,0.4-0.2,0.9-0.3,1.4
	c-0.5-0.1-0.9-0.2-1.4-0.4c-0.4-0.1-0.9-0.3-1.3-0.4c-14.6-4.8-26.9-14.7-34.8-27.6c-0.2-0.4-0.5-0.8-0.7-1.3
	c-0.3-0.4-0.5-0.8-0.7-1.2c-2.5-4.5-4.4-9.4-5.7-14.4c-0.1-0.5-0.2-0.9-0.3-1.4c-0.1-0.4-0.2-0.9-0.3-1.4c-0.9-4.3-1.4-8.7-1.4-13.2
	c0-4.5,0.5-8.9,1.4-13.2c-4.9-1.4-10-2.1-15.3-2.2c-1,5-1.5,10.1-1.5,15.4c0,5.3,0.5,10.4,1.5,15.4c0.1,0.5,0.2,0.9,0.3,1.4
	c0.1,0.5,0.2,1,0.3,1.4c1.2,5.3,3,10.3,5.3,15.2c0.2,0.4,0.4,0.9,0.6,1.3c0.2,0.5,0.4,0.9,0.7,1.4c9.3,18.1,25.4,32.1,44.9,38.8
	c-8.6,3.2-17.9,4.9-27.6,4.9c-39.6,0-72.5-28.8-78.7-66.7c0.3,0.3,0.7,0.6,1.1,0.9c13.9,12.2,32.2,19.7,52.1,19.7
	c1.3,0,2.6,0,3.9-0.1c-2.2-4.9-4-10-5.2-15.4c-15.8-0.3-30.3-6.4-41.2-16.3c-0.4-0.3-0.7-0.6-1-1c-0.3-0.3-0.7-0.7-1-1
	c0.3-0.3,0.7-0.7,1-1c0.3-0.3,0.7-0.7,1-1c11-9.9,25.4-16,41.2-16.3c0.4,0,0.8,0,1.2,0h0.2c0.5,0,1,0,1.5,0
	c5.3,0.1,10.4,0.9,15.4,2.3c0.4,0.1,0.9,0.3,1.3,0.4c0.5,0.1,0.9,0.3,1.3,0.4c8.5,2.8,16.3,7.3,22.8,13.2c3.7-3.6,6.9-7.7,9.6-12.1
	c-7.7-6.8-16.7-12.1-26.7-15.4c-0.4-0.2-0.9-0.3-1.3-0.4c-0.5-0.2-0.9-0.3-1.4-0.4c-5.1-1.5-10.3-2.6-15.8-3c-0.5-0.1-1-0.1-1.5-0.1
	c-0.5,0-1-0.1-1.5-0.1c-1.3-0.1-2.6-0.1-3.9-0.1c-19.9,0-38.2,7.4-52.1,19.6c-0.4,0.3-0.7,0.6-1.1,0.9C6.4,29.6,39.2,0.8,78.8,0.8
	c9.7,0,19,1.7,27.6,4.9c0,0,0,0,0,0C87,12.3,70.9,26.4,61.5,44.5c5.5,0.6,10.8,1.6,15.9,3.2c7.8-12.9,20.2-22.9,34.8-27.6
	c0.4-0.1,0.9-0.3,1.3-0.4c0.5-0.1,0.9-0.3,1.4-0.4c0.1,0.4,0.2,0.9,0.3,1.4c0.1,0.5,0.2,0.9,0.3,1.4c0.9,4.3,1.4,8.7,1.4,13.2
	c0,11.1-2.9,21.6-7.9,30.7c-0.2,0.4-0.5,0.8-0.7,1.2c-0.2,0.4-0.5,0.8-0.7,1.2c-2.7,4.4-6,8.5-9.7,12.1c-0.3,0.3-0.7,0.7-1,1
	c-0.3,0.3-0.7,0.7-1,1C89.3,88.4,81.5,92.9,73,95.7c1.3,5.1,3.3,9.9,5.8,14.4c9.9-3.4,18.9-8.7,26.7-15.5c0.4-0.3,0.7-0.6,1.1-1
	c0.4-0.3,0.7-0.6,1-1C111.4,89,115,85,118,80.6c0.3-0.4,0.6-0.8,0.9-1.2c0.3-0.4,0.6-0.8,0.8-1.3c8-12.4,12.7-27.1,12.7-42.9
	c0-5.2-0.5-10.2-1.5-15.1C147.9,34.8,158.6,56.4,158.6,80.6 M244.6,76.6L218,45.2l25.1-26.8h-17.6L204.6,42h-0.2V18.3h-13.8v58.3
	h13.8V49.8h0.2l21.7,26.8H244.6z M304.6,76.6V18.3h-13.7l0.3,38H291l-23.4-38h-16.1v58.3h13.7l-0.3-38.1h0.2l23.5,38.1H304.6z
	 M376.4,47.2c0-18.7-13.5-30.5-31.8-30.5c-18.2,0-31.7,11.8-31.7,30.5c0,18.4,13.5,31,31.7,31C362.9,78.2,376.4,65.7,376.4,47.2z
	 M361.3,47.2c0,10.5-6.9,18.1-16.7,18.1c-9.8,0-16.6-7.6-16.6-18.1c0-10.2,6.8-17.8,16.6-17.8C354.5,29.4,361.3,37,361.3,47.2z
	 M425.3,30.3v-12h-47v12h16.5v46.3h14.1V30.3H425.3z M238.2,142.8l-15.2-25c7.5-2.3,12.1-7.9,12.1-15.7c0-13.3-11.1-17.6-22.3-17.6
	h-22.2v58.3h13.8v-23.1h4.8l12.6,23.1H238.2z M221.2,102.4c0,5.9-5.7,7.1-10.2,7.1h-6.7V95.9h7.5C216,95.9,221.2,97,221.2,102.4z
	 M284.8,142.8v-12h-27.1v-12.1h24.2v-11.3h-24.2v-11h25.6V84.5h-39.2v58.3H284.8z M333.7,90.2c-5.1-4.7-12.5-7.2-19.1-7.2
	c-10.9,0-22.6,5.4-22.6,18.3c0,10.5,7.5,14.3,14.9,16.7c7.7,2.5,12.1,3.9,12.1,8.3c0,4.7-3.8,6.3-8.1,6.3c-4.6,0-9.8-2.6-12.6-6.2
	l-9.2,9.4c5.1,5.4,13.5,8.4,21.8,8.4c11.5,0,22.3-6,22.3-19.4c0-11.6-10.2-15-18.1-17.5c-5.5-1.7-9-3-9-6.8c0-4.6,4.5-5.8,8.2-5.8
	c3.6,0,8,2,10.4,5L333.7,90.2z M401.5,113.4c0-18.7-13.5-30.5-31.8-30.5c-18.2,0-31.7,11.8-31.7,30.5c0,18.4,13.5,31,31.7,31
	C388,144.4,401.5,131.9,401.5,113.4z M386.5,113.4c0,10.5-6.9,18.1-16.7,18.1c-9.8,0-16.6-7.6-16.6-18.1c0-10.2,6.8-17.8,16.6-17.8
	S386.5,103.2,386.5,113.4z M446.6,142.8v-12.3H424v-46h-14.2v58.3H446.6z M498.2,84.5h-15.6l-13.4,41.3h-0.3l-13.5-41.3h-15.8
	l22.1,58.3h14.1L498.2,84.5z M543.3,142.8v-12h-27.1v-12.1h24.2v-11.3h-24.2v-11h25.6V84.5h-39.2v58.3H543.3z M600,142.8l-15.2-25
	c7.5-2.3,12.1-7.9,12.1-15.7c0-13.3-11.1-17.6-22.3-17.6h-22.2v58.3h13.8v-23.1h4.8l12.6,23.1H600z M583,102.4
	c0,5.9-5.7,7.1-10.2,7.1h-6.7V95.9h7.5C577.8,95.9,583,97,583,102.4z"/>
</svg>
