<?xml version="1.0" encoding="UTF-8"?>
<!DOCTYPE svg PUBLIC "-//W3C//DTD SVG 1.1//EN" "http://www.w3.org/Graphics/SVG/1.1/DTD/svg11.dtd">
<svg xmlns="http://www.w3.org/2000/svg" xmlns:xlink="http://www.w3.org/1999/xlink" version="1.1" width="602px" height="161px" viewBox="-0.5 -0.5 602 161"><defs><style type="text/css">@import url(https://fonts.googleapis.com/css2?family=Roboto:wght@400;500);&#xa;</style></defs><g><g><path d="M 380 150.5 L 380 128.74" fill="none" stroke="#404040" stroke-width="2" stroke-miterlimit="10" stroke-dasharray="6 6" pointer-events="stroke"/><path d="M 380 122.74 L 384 130.74 L 380 128.74 L 376 130.74 Z" fill="#404040" stroke="#404040" stroke-width="2" stroke-miterlimit="10" pointer-events="all"/></g><g><path d="M 60 120.5 L 60 151 L 540 151 L 540 128.74" fill="none" stroke="#404040" stroke-width="2" stroke-miterlimit="10" stroke-dasharray="6 6" pointer-events="stroke"/><path d="M 540 122.74 L 544 130.74 L 540 128.74 L 536 130.74 Z" fill="#404040" stroke="#404040" stroke-width="2" stroke-miterlimit="10" pointer-events="all"/></g><g><rect x="0" y="60.5" width="120" height="60" fill="none" stroke="#404040" stroke-width="2" pointer-events="all"/></g><g><g fill="#404040" font-family="Roboto" font-weight="bold" text-anchor="middle" font-size="14px"><text x="59.5" y="96">manager</text></g></g><g><rect x="320" y="60.5" width="120" height="60" fill="none" stroke="#404040" stroke-width="2" pointer-events="all"/></g><g><g fill="#404040" font-family="Roboto" text-anchor="middle" font-size="14px"><text x="379.5" y="96">cache-gc</text></g></g><g><rect x="480" y="60.5" width="120" height="60" fill="none" stroke="#404040" stroke-width="2" pointer-events="all"/></g><g><g fill="#404040" font-family="Roboto" text-anchor="middle" font-size="14px"><text x="539.5" y="96">policy-loader</text></g></g><g><rect x="0" y="0.5" width="600" height="30" fill="none" stroke="#404040" stroke-width="2" pointer-events="all"/></g><g><g fill="#404040" font-family="Roboto" font-weight="bold" text-anchor="middle" font-size="14px"><text x="299.5" y="21">supervisord</text></g></g><g><rect x="160" y="60.5" width="120" height="60" fill="none" stroke="#404040" stroke-width="2" pointer-events="all"/></g><g><g fill="#404040" font-family="Roboto" text-anchor="middle" font-size="14px"><text x="219.5" y="96">kresd_N</text></g></g><g><path d="M 60 30.5 L 60 52.26" fill="none" stroke="#404040" stroke-width="2" stroke-miterlimit="10" pointer-events="stroke"/><path d="M 60 58.26 L 56 50.26 L 60 52.26 L 64 50.26 Z" fill="#404040" stroke="#404040" stroke-width="2" stroke-miterlimit="10" pointer-events="all"/></g><g><path d="M 219.76 30.5 L 219.76 52.26" fill="none" stroke="#404040" stroke-width="2" stroke-miterlimit="10" pointer-events="stroke"/><path d="M 219.76 58.26 L 215.76 50.26 L 219.76 52.26 L 223.76 50.26 Z" fill="#404040" stroke="#404040" stroke-width="2" stroke-miterlimit="10" pointer-events="all"/></g><g><path d="M 379.76 30.5 L 379.76 52.26" fill="none" stroke="#404040" stroke-width="2" stroke-miterlimit="10" pointer-events="stroke"/><path d="M 379.76 58.26 L 375.76 50.26 L 379.76 52.26 L 383.76 50.26 Z" fill="#404040" stroke="#404040" stroke-width="2" stroke-miterlimit="10" pointer-events="all"/></g><g><path d="M 539.76 30.5 L 539.76 52.26" fill="none" stroke="#404040" stroke-width="2" stroke-miterlimit="10" pointer-events="stroke"/><path d="M 539.76 58.26 L 535.76 50.26 L 539.76 52.26 L 543.76 50.26 Z" fill="#404040" stroke="#404040" stroke-width="2" stroke-miterlimit="10" pointer-events="all"/></g><g><path d="M 110 38.74 L 110 60.5" fill="none" stroke="#404040" stroke-width="2" stroke-miterlimit="10" stroke-dasharray="6 6" pointer-events="stroke"/><path d="M 110 32.74 L 114 40.74 L 110 38.74 L 106 40.74 Z" fill="#404040" stroke="#404040" stroke-width="2" stroke-miterlimit="10" pointer-events="all"/></g><g><path d="M 220 150.5 L 219.88 128.74" fill="none" stroke="#404040" stroke-width="2" stroke-miterlimit="10" stroke-dasharray="6 6" pointer-events="stroke"/><path d="M 219.84 122.74 L 223.89 130.71 L 219.88 128.74 L 215.89 130.76 Z" fill="#404040" stroke="#404040" stroke-width="2" stroke-miterlimit="10" pointer-events="all"/></g><g><rect x="240" y="120.5" width="120" height="30" fill="none" stroke="none" pointer-events="all"/></g><g><g fill="#404040" font-family="Roboto" font-style="italic" text-anchor="middle" font-size="14px"><text x="299.5" y="141">configuration...</text></g></g><g><rect x="105" y="30.5" width="80" height="30" fill="none" stroke="none" pointer-events="all"/></g><g><g fill="#404040" font-family="Roboto" font-style="italic" text-anchor="middle" font-size="14px"><text x="144.5" y="51">control...</text></g></g><g><rect x="245" y="30.5" width="110" height="30" fill="none" stroke="none" pointer-events="all"/></g><g><g fill="#404040" font-family="Roboto" font-style="italic" text-anchor="middle" font-size="14px"><text x="299.5" y="51">supervision...</text></g></g></g></svg>