<?xml version="1.0" encoding="UTF-8" standalone="no"?>
<svg
   xmlns:dc="http://purl.org/dc/elements/1.1/"
   xmlns:cc="http://creativecommons.org/ns#"
   xmlns:rdf="http://www.w3.org/1999/02/22-rdf-syntax-ns#"
   xmlns:svg="http://www.w3.org/2000/svg"
   xmlns="http://www.w3.org/2000/svg"
   style="fill-rule:evenodd;stroke-width:28.22200012;stroke-linejoin:round"
   id="svg687"
   xml:space="preserve"
   preserveAspectRatio="xMidYMid"
   viewBox="0 0 16750.999 21747"
   height="217.47mm"
   width="167.50999mm"
   version="1.2"><metadata
   id="metadata691"><rdf:RDF><cc:Work
       rdf:about=""><dc:format>image/svg+xml</dc:format><dc:type
         rdf:resource="http://purl.org/dc/dcmitype/StillImage" /><dc:title></dc:title><cc:license
         rdf:resource="SPDX-License-Identifier: GPL-3.0-or-later" /></cc:Work></rdf:RDF></metadata>
 <defs
   id="defs8"
   class="ClipPathGroup"><clipPath
     clipPathUnits="userSpaceOnUse"
     id="presentation_clip_path">
   <rect
   id="rect2"
   height="29700"
   width="21000"
   y="0"
   x="0" />
  </clipPath></defs>
 <defs
   id="defs77" />
 <defs
   id="defs116" />
 <defs
   id="defs159" />
 <defs
   id="defs163"
   class="TextShapeIndex" />
 <defs
   id="defs195"
   class="EmbeddedBulletChars" />
 <g
   transform="translate(-1750,-3827)"
   id="g200">
  <g
   class="Master_Slide"
   id="id2">
   <g
   class="Background"
   id="bg-id2" />
   <g
   class="BackgroundObjects"
   id="bo-id2" />
  </g>
 </g>
 <g
   transform="translate(-1750,-3827)"
   id="g685"
   class="SlideGroup">
  <g
   id="g683">
   <g
   id="container-id1">
    <g
   clip-path="url(#presentation_clip_path)"
   class="Slide"
   id="id1">
     <g
   id="g679"
   class="Page">
      <g
   id="g258"
   class="Group">
       <g
   id="g239"
   class="Graphic">
        <title
   id="title202">data, server, database, router, hardware
        </title>
        <g
   id="id3">
         <rect
   style="fill:none;stroke:none"
   id="rect204"
   height="2351"
   width="1671"
   y="21550"
   x="14641"
   class="BoundingBox" />
         <path
   style="fill:#000000;stroke:none"
   id="path206"
   d="m 14983,22711 h -55 v -164 h 110 v 164 z" />
         <path
   style="fill:#000000;stroke:none"
   id="path208"
   d="m 15202,22711 h -55 v -164 h 110 v 164 z" />
         <path
   style="fill:#000000;stroke:none"
   id="path210"
   d="m 15421,22711 h -55 v -164 h 110 v 164 z" />
         <path
   style="fill:#000000;stroke:none"
   id="path212"
   d="m 15640,22711 h -54 v -164 h 109 v 164 z" />
         <path
   style="fill:#000000;stroke:none"
   id="path214"
   d="m 16024,22629 c 0,10 -3,19 -8,28 -5,8 -12,15 -20,20 -8,4 -18,7 -27,7 -10,0 -19,-3 -28,-7 -8,-5 -15,-12 -20,-20 -4,-9 -7,-18 -7,-28 0,-9 3,-19 7,-27 5,-8 12,-15 20,-20 9,-5 18,-7 28,-7 9,0 19,2 27,7 8,5 15,12 20,20 5,8 8,18 8,27 z" />
         <path
   style="fill:#000000;stroke:none"
   id="path216"
   d="m 16160,22219 c 24,0 48,-6 69,-18 21,-12 38,-29 50,-50 12,-21 18,-44 18,-68 v -383 c 0,-24 -6,-47 -18,-68 -12,-21 -29,-38 -50,-50 -21,-12 -45,-18 -69,-18 h -1368 c -24,0 -48,6 -69,18 -21,12 -38,29 -50,50 -12,21 -18,44 -18,68 v 383 c 0,24 6,47 18,68 12,21 29,38 50,50 21,12 45,18 69,18 h 27 v 82 h -27 c -24,0 -48,7 -69,19 -21,12 -38,29 -50,50 -12,21 -18,44 -18,68 v 383 c 0,24 6,47 18,68 12,21 29,38 50,50 21,12 45,18 69,18 h 27 v 82 h -27 c -24,0 -48,7 -69,19 -21,12 -38,29 -50,50 -12,20 -18,44 -18,68 v 382 c 0,24 6,48 18,69 12,21 29,38 50,50 21,12 45,18 69,18 h 27 v 191 h 1314 v -191 h 27 c 24,0 48,-6 69,-18 21,-12 38,-29 50,-50 12,-21 18,-45 18,-69 v -382 c 0,-24 -6,-48 -18,-68 -12,-21 -29,-38 -50,-50 -21,-12 -45,-19 -69,-19 h -27 v -82 h 27 c 24,0 48,-6 69,-18 21,-12 38,-29 50,-50 12,-21 18,-44 18,-68 v -383 c 0,-24 -6,-47 -18,-68 -12,-21 -29,-38 -50,-50 -21,-12 -45,-19 -69,-19 h -27 v -82 z m -136,1558 h -1096 v -82 h 1096 z m 136,-628 c 5,0 10,1 14,3 4,3 8,6 10,10 3,4 4,9 4,14 v 382 c 0,5 -1,10 -4,14 -2,4 -6,8 -10,10 -4,2 -9,4 -14,4 h -1368 c -5,0 -10,-2 -14,-4 -4,-2 -8,-6 -10,-10 -3,-4 -4,-9 -4,-14 v -382 c 0,-5 1,-10 4,-14 2,-4 6,-7 10,-10 4,-2 9,-3 14,-3 z m -1232,-110 v -82 h 1096 v 82 z m 1232,-628 c 5,0 10,1 14,3 4,3 8,6 10,10 3,5 4,9 4,14 v 383 c 0,4 -1,9 -4,13 -2,4 -6,8 -10,10 -4,3 -9,4 -14,4 h -1368 c -5,0 -10,-1 -14,-4 -4,-2 -8,-6 -10,-10 -3,-4 -4,-9 -4,-13 v -383 c 0,-5 1,-9 4,-14 2,-4 6,-7 10,-10 4,-2 9,-3 14,-3 z m -1232,-110 v -82 h 1096 v 82 z m -136,-191 c -5,0 -10,-1 -14,-3 -4,-3 -8,-6 -10,-10 -3,-5 -4,-9 -4,-14 v -383 c 0,-5 1,-9 4,-13 2,-5 6,-8 10,-10 4,-3 9,-4 14,-4 h 1368 c 5,0 10,1 14,4 4,2 8,5 10,10 3,4 4,8 4,13 v 383 c 0,5 -1,9 -4,14 -2,4 -6,7 -10,10 -4,2 -9,3 -14,3 z" />
         <path
   style="fill:#000000;stroke:none"
   id="path218"
   d="m 14983,21974 h -55 v -164 h 110 v 164 z" />
         <path
   style="fill:#000000;stroke:none"
   id="path220"
   d="m 15202,21974 h -55 v -164 h 110 v 164 z" />
         <path
   style="fill:#000000;stroke:none"
   id="path222"
   d="m 15421,21974 h -55 v -164 h 110 v 164 z" />
         <path
   style="fill:#000000;stroke:none"
   id="path224"
   d="m 15640,21974 h -54 v -164 h 109 v 164 z" />
         <path
   style="fill:#000000;stroke:none"
   id="path226"
   d="m 16024,21892 c 0,9 -3,19 -8,27 -5,8 -12,15 -20,20 -8,5 -18,7 -27,7 -10,0 -19,-2 -28,-7 -8,-5 -15,-12 -20,-20 -4,-8 -7,-18 -7,-27 0,-10 3,-19 7,-28 5,-8 12,-15 20,-20 9,-5 18,-7 28,-7 9,0 19,2 27,7 8,5 15,12 20,20 5,9 8,18 8,28 z" />
         <path
   style="fill:#000000;stroke:none"
   id="path228"
   d="m 14983,23449 h -55 v -164 h 110 v 164 z" />
         <path
   style="fill:#000000;stroke:none"
   id="path230"
   d="m 15202,23449 h -55 v -164 h 110 v 164 z" />
         <path
   style="fill:#000000;stroke:none"
   id="path232"
   d="m 15421,23449 h -55 v -164 h 110 v 164 z" />
         <path
   style="fill:#000000;stroke:none"
   id="path234"
   d="m 15640,23449 h -54 v -164 h 109 v 164 z" />
         <path
   style="fill:#000000;stroke:none"
   id="path236"
   d="m 16024,23367 c 0,10 -3,19 -8,27 -5,9 -12,16 -20,20 -8,5 -18,8 -27,8 -10,0 -19,-3 -28,-8 -8,-4 -15,-11 -20,-20 -4,-8 -7,-17 -7,-27 0,-9 3,-19 7,-27 5,-8 12,-15 20,-20 9,-5 18,-7 28,-7 9,0 19,2 27,7 8,5 15,12 20,20 5,8 8,18 8,27 z" />
        </g>
       </g>
       <g
   id="g256"
   class="com.sun.star.drawing.TextShape">
        <g
   id="id4">
         <rect
   style="fill:none;stroke:none"
   id="rect241"
   height="1674"
   width="3953"
   y="23900"
   x="13500"
   class="BoundingBox" />
         <text
   id="text253"
   class="TextShape"><tspan
     style="font-weight:400;font-size:635px;font-family:'Liberation Sans', sans-serif"
     id="tspan251"
     font-weight="400"
     font-size="635px"
     class="TextParagraph"><tspan
       id="tspan245"
       y="24601"
       x="13750"
       class="TextPosition"><tspan
         style="fill:#000000;stroke:none"
         id="tspan243">authoritative</tspan></tspan><tspan
       id="tspan249"
       y="25312"
       x="14595"
       class="TextPosition"><tspan
         style="fill:#000000;stroke:none"
         id="tspan247">server</tspan></tspan></tspan></text>

        </g>
       </g>
      </g>
      <g
   id="g287"
   class="Group">
       <g
   id="g272"
   class="Graphic">
        <g
   id="id5">
         <rect
   style="fill:none;stroke:none"
   id="rect260"
   height="2351"
   width="2321"
   y="13438"
   x="8886"
   class="BoundingBox" />
         <defs
   id="defs265"><clipPath
     clipPathUnits="userSpaceOnUse"
     id="clip_path_1">
           <path
   id="path262"
   d="m 8886,13438 h 2320 v 2350 H 8886 Z" />
          </clipPath></defs>
         <g
   id="g269"
   clip-path="url(#clip_path_1)">
          <path
   style="fill:#00a2e2;stroke:none"
   id="path267"
   d="m 11206,14614 c 0,353 -157,669 -405,884 13,-71 21,-145 21,-220 0,-231 -69,-447 -186,-628 -46,64 -99,124 -156,178 74,132 116,286 116,450 0,66 -7,130 -21,193 -1,7 -3,13 -4,20 -1,7 -4,14 -5,20 -6,-2 -13,-3 -20,-5 -7,-2 -13,-4 -19,-7 -214,-70 -394,-215 -509,-404 -4,-5 -7,-12 -11,-18 -4,-5 -7,-12 -11,-18 -36,-66 -64,-137 -83,-211 -1,-7 -3,-13 -4,-20 -3,-7 -4,-14 -5,-20 -13,-62 -20,-128 -20,-194 0,-66 7,-130 20,-193 -71,-21 -146,-32 -224,-33 -15,73 -23,149 -23,225 0,78 8,153 23,226 1,7 2,13 4,20 2,7 4,14 5,20 18,77 44,151 78,222 3,7 5,13 9,19 3,7 6,14 10,20 136,265 371,470 658,567 -127,46 -263,72 -405,72 -580,0 -1061,-422 -1152,-975 6,5 10,9 16,14 204,178 471,286 762,286 19,0 39,0 58,-1 -33,-72 -58,-146 -76,-225 -232,-4 -442,-93 -603,-238 -6,-5 -10,-9 -16,-14 -6,-4 -10,-9 -15,-14 5,-5 9,-10 15,-15 4,-4 10,-9 15,-13 161,-145 371,-234 603,-239 6,0 13,0 18,0 h 4 c 6,0 14,0 21,0 78,3 153,14 225,34 7,2 14,3 19,6 7,2 14,4 20,5 125,41 238,107 333,194 54,-53 101,-113 141,-178 -113,-99 -246,-176 -391,-226 -7,-2 -14,-4 -19,-7 -7,-2 -14,-4 -21,-6 -74,-23 -150,-37 -230,-44 -7,-1 -15,-1 -22,-2 -8,0 -14,-2 -22,-2 -19,-1 -39,-1 -58,-1 -291,0 -558,108 -762,287 -6,4 -10,9 -16,13 91,-548 572,-970 1152,-970 142,0 278,26 404,72 v 0 c -286,97 -520,301 -657,566 80,8 157,23 233,47 115,-189 295,-334 509,-404 7,-2 13,-4 19,-7 7,-2 14,-3 20,-5 1,7 4,13 5,20 1,7 3,14 4,20 14,62 21,127 21,194 0,163 -42,316 -116,449 -4,6 -7,13 -11,18 -3,6 -6,13 -11,18 -39,65 -88,125 -142,178 -4,5 -10,10 -14,15 -5,4 -10,9 -15,13 -96,86 -209,152 -334,194 19,74 47,145 84,210 145,-50 277,-127 390,-226 5,-5 10,-9 15,-14 6,-4 11,-9 16,-14 58,-54 109,-114 154,-178 5,-5 8,-12 13,-18 4,-5 8,-12 12,-18 117,-181 186,-396 186,-626 0,-75 -7,-150 -21,-221 246,213 404,530 404,883 z" />
         </g>
        </g>
       </g>
       <g
   id="g285"
   class="com.sun.star.drawing.TextShape">
        <g
   id="id6">
         <rect
   style="fill:none;stroke:none"
   id="rect274"
   height="963"
   width="4482"
   y="15838"
   x="7806"
   class="BoundingBox" />
         <text
   id="text282"
   class="TextShape"><tspan
     style="font-weight:400;font-size:635px;font-family:'Liberation Sans', sans-serif"
     id="tspan280"
     font-weight="400"
     font-size="635px"
     class="TextParagraph"><tspan
       id="tspan278"
       y="16539"
       x="8056"
       class="TextPosition"><tspan
         style="fill:#000000;stroke:none"
         id="tspan276">Knot Resolver</tspan></tspan></tspan></text>

        </g>
       </g>
      </g>
      <g
   id="g333"
   class="Group">
       <g
   id="g314"
   class="Graphic">
        <title
   id="title289">data, server, database,db, hosting
        </title>
        <g
   id="id7">
         <rect
   style="fill:none;stroke:none"
   id="rect291"
   height="2351"
   width="2431"
   y="21550"
   x="3400"
   class="BoundingBox" />
         <path
   style="fill:#000000;stroke:none"
   id="path293"
   d="m 3741,21974 h -54 v -164 h 109 v 164 z" />
         <path
   style="fill:#000000;stroke:none"
   id="path295"
   d="m 3960,21974 h -55 v -164 h 109 v 164 z" />
         <path
   style="fill:#000000;stroke:none"
   id="path297"
   d="m 4178,21974 h -54 v -164 h 109 v 164 z" />
         <path
   style="fill:#000000;stroke:none"
   id="path299"
   d="m 3741,22711 h -54 v -164 h 109 v 164 z" />
         <path
   style="fill:#000000;stroke:none"
   id="path301"
   d="m 3960,22711 h -55 v -164 h 109 v 164 z" />
         <path
   style="fill:#000000;stroke:none"
   id="path303"
   d="m 4178,22711 h -54 v -164 h 109 v 164 z" />
         <path
   style="fill:#000000;stroke:none"
   id="path305"
   d="m 3741,23449 h -54 v -164 h 109 v 164 z" />
         <path
   style="fill:#000000;stroke:none"
   id="path307"
   d="m 3960,23449 h -55 v -164 h 109 v 164 z" />
         <path
   style="fill:#000000;stroke:none"
   id="path309"
   d="m 4178,23449 h -54 v -164 h 109 v 164 z" />
         <path
   style="fill:#000000;stroke:none"
   id="path311"
   d="m 5093,21755 h -41 v -55 c 0,-24 -6,-47 -18,-68 -12,-21 -30,-38 -50,-50 -21,-12 -45,-18 -69,-18 H 3550 c -24,0 -47,6 -68,18 -21,12 -38,29 -50,50 -12,21 -18,44 -18,68 v 383 c 0,24 6,47 18,68 12,21 29,38 50,50 21,12 44,18 68,18 h 27 v 82 h -27 c -24,0 -47,7 -68,19 -21,12 -38,29 -50,50 -12,21 -18,44 -18,68 v 383 c 0,24 6,47 18,68 12,21 29,38 50,50 21,12 44,18 68,18 h 27 v 82 h -27 c -24,0 -47,7 -68,19 -21,12 -38,29 -50,50 -12,20 -18,44 -18,68 v 382 c 0,24 6,48 18,69 12,21 29,38 50,50 21,12 44,18 68,18 h 27 v 191 h 1311 v -191 h 27 c 24,0 48,-6 69,-18 20,-12 38,-29 50,-50 12,-21 18,-45 18,-69 v -27 h 41 c 348,0 723,-79 723,-254 v -1279 c -4,-167 -377,-243 -723,-243 z m -1543,355 c -5,0 -9,-1 -13,-3 -5,-3 -8,-6 -10,-10 -3,-5 -4,-9 -4,-14 v -383 c 0,-5 1,-9 4,-13 2,-5 5,-8 10,-10 4,-3 8,-4 13,-4 h 1365 c 5,0 10,1 14,4 4,2 8,5 10,10 2,4 4,8 4,13 v 60 c -297,19 -570,95 -574,238 v 112 z m 819,109 v 82 h -682 v -82 z m -819,629 c -5,0 -9,-1 -13,-4 -5,-2 -8,-6 -10,-10 -3,-4 -4,-9 -4,-13 v -383 c 0,-5 1,-9 4,-14 2,-4 5,-7 10,-10 4,-2 8,-3 13,-3 h 819 v 437 z m 819,109 v 82 h -682 v -82 z m 410,820 H 3687 v -82 h 1092 z m 164,-219 c 0,5 -2,10 -4,14 -2,4 -6,8 -10,10 -4,2 -9,4 -14,4 H 3550 c -5,0 -9,-2 -13,-4 -5,-2 -8,-6 -10,-10 -3,-4 -4,-9 -4,-14 v -382 c 0,-5 1,-10 4,-14 2,-4 5,-7 10,-10 4,-2 8,-3 13,-3 h 819 v 128 c 0,150 275,229 574,249 z m 764,-281 c 0,43 -209,145 -614,145 -405,0 -615,-102 -615,-145 v -268 c 137,76 383,112 615,112 232,0 478,-36 614,-112 z m 0,-412 c 0,44 -209,147 -614,147 -405,0 -615,-103 -615,-147 v -290 c 137,74 383,109 615,109 232,0 478,-35 614,-109 z m 0,-430 c 0,41 -215,140 -614,140 -399,0 -615,-99 -615,-140 v -296 c 137,73 383,108 615,108 232,0 478,-35 614,-108 z m -614,-298 c -423,0 -615,-104 -615,-136 0,-32 192,-137 615,-137 423,0 614,105 614,137 0,32 -191,136 -614,136 z" />
        </g>
       </g>
       <g
   id="g331"
   class="com.sun.star.drawing.TextShape">
        <g
   id="id8">
         <rect
   style="fill:none;stroke:none"
   id="rect316"
   height="1674"
   width="3145"
   y="23900"
   x="3043"
   class="BoundingBox" />
         <text
   id="text328"
   class="TextShape"><tspan
     style="font-weight:400;font-size:635px;font-family:'Liberation Sans', sans-serif"
     id="tspan326"
     font-weight="400"
     font-size="635px"
     class="TextParagraph"><tspan
       id="tspan320"
       y="24601"
       x="3293"
       class="TextPosition"><tspan
         style="fill:#000000;stroke:none"
         id="tspan318">upstream</tspan></tspan><tspan
       id="tspan324"
       y="25312"
       x="3329"
       class="TextPosition"><tspan
         style="fill:#000000;stroke:none"
         id="tspan322">resolvers</tspan></tspan></tspan></text>

        </g>
       </g>
      </g>
      <g
   id="g359"
   class="Group">
       <g
   id="g346"
   class="com.sun.star.drawing.TextShape">
        <g
   id="id9">
         <rect
   style="fill:none;stroke:none"
   id="rect335"
   height="963"
   width="2298"
   y="3827"
   x="8898"
   class="BoundingBox" />
         <text
   id="text343"
   class="TextShape"><tspan
     style="font-weight:400;font-size:635px;font-family:'Liberation Sans', sans-serif"
     id="tspan341"
     font-weight="400"
     font-size="635px"
     class="TextParagraph"><tspan
       id="tspan339"
       y="4528"
       x="9148"
       class="TextPosition"><tspan
         style="fill:#000000;stroke:none"
         id="tspan337">clients</tspan></tspan></tspan></text>

        </g>
       </g>
       <g
   id="g357"
   class="Graphic">
        <title
   id="title348">data, server, database, monitor, terminal
        </title>
        <g
   id="id10">
         <rect
   style="fill:none;stroke:none"
   id="rect350"
   height="2351"
   width="2491"
   y="4900"
   x="8801"
   class="BoundingBox" />
         <path
   style="fill:#000000;stroke:none"
   id="path352"
   d="m 9099,6285 h 1894 V 5198 H 9099 Z m 140,-947 h 1614 v 807 H 9239 Z" />
         <path
   style="fill:#000000;stroke:none"
   id="path354"
   d="m 8819,4918 v 1648 h 982 v 248 c -121,18 -211,121 -211,243 v 175 h 912 v -175 c 0,-122 -90,-225 -211,-243 v -248 h 982 V 4918 Z m 1543,2139 v 35 h -632 v -35 c 0,-58 47,-105 106,-105 h 420 c 59,0 106,47 106,105 z m -421,-245 v -246 h 210 v 246 z M 8959,6426 V 5058 h 2174 v 1368 z" />
        </g>
       </g>
      </g>
      <g
   id="g368"
   class="com.sun.star.drawing.LineShape">
       <g
   id="id11">
        <rect
   style="fill:none;stroke:none"
   id="rect361"
   height="4851"
   width="3481"
   y="16650"
   x="11164"
   class="BoundingBox" />
        <path
   style="fill:none;stroke:#000000;stroke-width:100;stroke-linejoin:round"
   id="path363"
   d="m 11214,16700 3055,4275" />
        <path
   style="fill:#000000;stroke:none"
   id="path365"
   d="m 14644,21500 -209,-680 -367,262 z" />
       </g>
      </g>
      <g
   id="g409"
   class="com.sun.star.drawing.LineShape">
       <g
   id="id12">
        <rect
   style="fill:none;stroke:none"
   id="rect370"
   height="4851"
   width="3481"
   y="16650"
   x="5460"
   class="BoundingBox" />
        <path
   style="fill:none;stroke:#000000;stroke-width:100;stroke-linejoin:round"
   id="path372"
   d="m 8890,16700 -115,160" />
        <path
   style="fill:none;stroke:#000000;stroke-width:100;stroke-linejoin:round"
   id="path374"
   d="m 8702,16964 -115,160" />
        <path
   style="fill:none;stroke:#000000;stroke-width:100;stroke-linejoin:round"
   id="path376"
   d="m 8513,17227 -114,161" />
        <path
   style="fill:none;stroke:#000000;stroke-width:100;stroke-linejoin:round"
   id="path378"
   d="m 8325,17491 -115,160" />
        <path
   style="fill:none;stroke:#000000;stroke-width:100;stroke-linejoin:round"
   id="path380"
   d="m 8137,17754 -115,161" />
        <path
   style="fill:none;stroke:#000000;stroke-width:100;stroke-linejoin:round"
   id="path382"
   d="m 7948,18018 -114,160" />
        <path
   style="fill:none;stroke:#000000;stroke-width:100;stroke-linejoin:round"
   id="path384"
   d="m 7760,18282 -115,160" />
        <path
   style="fill:none;stroke:#000000;stroke-width:100;stroke-linejoin:round"
   id="path386"
   d="m 7571,18545 -114,161" />
        <path
   style="fill:none;stroke:#000000;stroke-width:100;stroke-linejoin:round"
   id="path388"
   d="m 7383,18809 -115,160" />
        <path
   style="fill:none;stroke:#000000;stroke-width:100;stroke-linejoin:round"
   id="path390"
   d="m 7195,19073 -115,160" />
        <path
   style="fill:none;stroke:#000000;stroke-width:100;stroke-linejoin:round"
   id="path392"
   d="m 7006,19336 -114,160" />
        <path
   style="fill:none;stroke:#000000;stroke-width:100;stroke-linejoin:round"
   id="path394"
   d="m 6818,19600 -115,160" />
        <path
   style="fill:none;stroke:#000000;stroke-width:100;stroke-linejoin:round"
   id="path396"
   d="m 6630,19863 -115,161" />
        <path
   style="fill:none;stroke:#000000;stroke-width:100;stroke-linejoin:round"
   id="path398"
   d="m 6441,20127 -114,160" />
        <path
   style="fill:none;stroke:#000000;stroke-width:100;stroke-linejoin:round"
   id="path400"
   d="m 6253,20391 -115,160" />
        <path
   style="fill:none;stroke:#000000;stroke-width:100;stroke-linejoin:round"
   id="path402"
   d="m 6064,20654 -114,160" />
        <path
   style="fill:none;stroke:#000000;stroke-width:100;stroke-linejoin:round"
   id="path404"
   d="m 5876,20918 -41,57" />
        <path
   style="fill:#000000;stroke:none"
   id="path406"
   d="m 5460,21500 576,-418 -367,-262 z" />
       </g>
      </g>
      <g
   id="g418"
   class="com.sun.star.drawing.LineShape">
       <g
   id="id13">
        <rect
   style="fill:none;stroke:none"
   id="rect411"
   height="5751"
   width="451"
   y="7450"
   x="9821"
   class="BoundingBox" />
        <path
   style="fill:none;stroke:#000000;stroke-width:100;stroke-linejoin:round"
   id="path413"
   d="m 10046,7500 v 5055" />
        <path
   style="fill:#000000;stroke:none"
   id="path415"
   d="m 10046,13200 225,-675 h -450 z" />
       </g>
      </g>
      <g
   id="g437"
   class="com.sun.star.drawing.TextShape">
       <g
   id="id14">
        <rect
   style="fill:none;stroke:none"
   id="rect420"
   height="2385"
   width="5621"
   y="16726"
   x="12694"
   class="BoundingBox" />
        <text
   id="text434"
   class="TextShape"><tspan
     style="font-weight:700;font-size:635px;font-family:'Liberation Sans', sans-serif"
     id="tspan426"
     font-weight="700"
     font-size="635px"
     class="TextParagraph"><tspan
       id="tspan424"
       y="18138"
       x="12944"
       class="TextPosition"><tspan
         style="fill:#000000;stroke:none"
         id="tspan422">recursion</tspan></tspan></tspan><tspan
     style="font-weight:400;font-size:635px;font-family:'Liberation Sans', sans-serif"
     id="tspan432"
     font-weight="400"
     font-size="635px"
     class="TextParagraph"><tspan
       id="tspan430"
       y="18849"
       x="12944"
       class="TextPosition"><tspan
         style="fill:#000000;stroke:none"
         id="tspan428">unencrypted DNS</tspan></tspan></tspan></text>

       </g>
      </g>
      <g
   id="g468"
   class="com.sun.star.drawing.TextShape">
       <g
   id="id15">
        <rect
   style="fill:none;stroke:none"
   id="rect439"
   height="3807"
   width="5501"
   y="16726"
   x="1900"
   class="BoundingBox" />
        <text
   id="text465"
   class="TextShape"><tspan
     style="font-style:italic;font-weight:400;font-size:635px;font-family:'Liberation Sans', sans-serif"
     id="tspan445"
     font-weight="400"
     font-style="italic"
     font-size="635px"
     class="TextParagraph"><tspan
       id="tspan443"
       y="17427"
       x="2150"
       class="TextPosition"><tspan
         style="fill:#000000;stroke:none"
         id="tspan441">(optional)</tspan></tspan></tspan><tspan
     style="font-weight:700;font-size:635px;font-family:'Liberation Sans', sans-serif"
     id="tspan451"
     font-weight="700"
     font-size="635px"
     class="TextParagraph"><tspan
       id="tspan449"
       y="18138"
       x="2150"
       class="TextPosition"><tspan
         style="fill:#000000;stroke:none"
         id="tspan447">forwarding</tspan></tspan></tspan><tspan
     style="font-weight:400;font-size:635px;font-family:'Liberation Sans', sans-serif"
     id="tspan457"
     font-weight="400"
     font-size="635px"
     class="TextParagraph"><tspan
       id="tspan455"
       y="18849"
       x="2150"
       class="TextPosition"><tspan
         style="fill:#000000;stroke:none"
         id="tspan453">unencrypted DNS</tspan></tspan></tspan><tspan
     style="font-weight:400;font-size:635px;font-family:'Liberation Sans', sans-serif"
     id="tspan463"
     font-weight="400"
     font-size="635px"
     class="TextParagraph"><tspan
       id="tspan461"
       y="19560"
       x="2150"
       class="TextPosition"><tspan
         style="fill:#000000;stroke:none"
         id="tspan459">DNS-over-TLS</tspan></tspan></tspan></text>

       </g>
      </g>
      <g
   id="g536"
   class="Group">
       <g
   id="g521"
   class="com.sun.star.drawing.LineShape">
        <g
   id="id16">
         <rect
   style="fill:none;stroke:none"
   id="rect470"
   height="451"
   width="8051"
   y="22675"
   x="6196"
   class="BoundingBox" />
         <path
   style="fill:none;stroke:#000000;stroke-width:100;stroke-linejoin:round"
   id="path472"
   d="m 6246,22900 h 197" />
         <path
   style="fill:none;stroke:#000000;stroke-width:100;stroke-linejoin:round"
   id="path474"
   d="m 6570,22900 h 197" />
         <path
   style="fill:none;stroke:#000000;stroke-width:100;stroke-linejoin:round"
   id="path476"
   d="m 6894,22900 h 197" />
         <path
   style="fill:none;stroke:#000000;stroke-width:100;stroke-linejoin:round"
   id="path478"
   d="m 7218,22900 h 197" />
         <path
   style="fill:none;stroke:#000000;stroke-width:100;stroke-linejoin:round"
   id="path480"
   d="m 7542,22900 h 197" />
         <path
   style="fill:none;stroke:#000000;stroke-width:100;stroke-linejoin:round"
   id="path482"
   d="m 7866,22900 h 197" />
         <path
   style="fill:none;stroke:#000000;stroke-width:100;stroke-linejoin:round"
   id="path484"
   d="m 8190,22900 h 197" />
         <path
   style="fill:none;stroke:#000000;stroke-width:100;stroke-linejoin:round"
   id="path486"
   d="m 8514,22900 h 197" />
         <path
   style="fill:none;stroke:#000000;stroke-width:100;stroke-linejoin:round"
   id="path488"
   d="m 8838,22900 h 197" />
         <path
   style="fill:none;stroke:#000000;stroke-width:100;stroke-linejoin:round"
   id="path490"
   d="m 9162,22900 h 197" />
         <path
   style="fill:none;stroke:#000000;stroke-width:100;stroke-linejoin:round"
   id="path492"
   d="m 9486,22900 h 197" />
         <path
   style="fill:none;stroke:#000000;stroke-width:100;stroke-linejoin:round"
   id="path494"
   d="m 9810,22900 h 197" />
         <path
   style="fill:none;stroke:#000000;stroke-width:100;stroke-linejoin:round"
   id="path496"
   d="m 10134,22900 h 197" />
         <path
   style="fill:none;stroke:#000000;stroke-width:100;stroke-linejoin:round"
   id="path498"
   d="m 10458,22900 h 197" />
         <path
   style="fill:none;stroke:#000000;stroke-width:100;stroke-linejoin:round"
   id="path500"
   d="m 10782,22900 h 197" />
         <path
   style="fill:none;stroke:#000000;stroke-width:100;stroke-linejoin:round"
   id="path502"
   d="m 11106,22900 h 197" />
         <path
   style="fill:none;stroke:#000000;stroke-width:100;stroke-linejoin:round"
   id="path504"
   d="m 11430,22900 h 197" />
         <path
   style="fill:none;stroke:#000000;stroke-width:100;stroke-linejoin:round"
   id="path506"
   d="m 11754,22900 h 197" />
         <path
   style="fill:none;stroke:#000000;stroke-width:100;stroke-linejoin:round"
   id="path508"
   d="m 12078,22900 h 197" />
         <path
   style="fill:none;stroke:#000000;stroke-width:100;stroke-linejoin:round"
   id="path510"
   d="m 12402,22900 h 197" />
         <path
   style="fill:none;stroke:#000000;stroke-width:100;stroke-linejoin:round"
   id="path512"
   d="m 12726,22900 h 197" />
         <path
   style="fill:none;stroke:#000000;stroke-width:100;stroke-linejoin:round"
   id="path514"
   d="m 13050,22900 h 197" />
         <path
   style="fill:none;stroke:#000000;stroke-width:100;stroke-linejoin:round"
   id="path516"
   d="m 13374,22900 h 197" />
         <path
   style="fill:#000000;stroke:none"
   id="path518"
   d="m 14246,22900 -675,-225 v 450 z" />
        </g>
       </g>
       <g
   id="g534"
   class="com.sun.star.drawing.TextShape">
        <g
   id="id17">
         <rect
   style="fill:none;stroke:none"
   id="rect523"
   height="963"
   width="3394"
   y="22900"
   x="8550"
   class="BoundingBox" />
         <text
   id="text531"
   class="TextShape"><tspan
     style="font-weight:700;font-size:635px;font-family:'Liberation Sans', sans-serif"
     id="tspan529"
     font-weight="700"
     font-size="635px"
     class="TextParagraph"><tspan
       id="tspan527"
       y="23601"
       x="8800"
       class="TextPosition"><tspan
         style="fill:#000000;stroke:none"
         id="tspan525">recursion</tspan></tspan></tspan></text>

        </g>
       </g>
      </g>
      <g
   id="g569"
   class="com.sun.star.drawing.TextShape">
       <g
   id="id18">
        <rect
   style="fill:none;stroke:none"
   id="rect538"
   height="4518"
   width="8113"
   y="8447"
   x="10188"
   class="BoundingBox" />
        <text
   id="text566"
   class="TextShape"><tspan
     style="font-weight:700;font-size:635px;font-family:'Liberation Sans', sans-serif"
     id="tspan544"
     font-weight="700"
     font-size="635px"
     class="TextParagraph"><tspan
       id="tspan542"
       y="9148"
       x="10438"
       class="TextPosition"><tspan
         style="fill:#000000;stroke:none"
         id="tspan540">clients asking questions</tspan></tspan></tspan><tspan
     style="font-weight:400;font-size:635px;font-family:'Liberation Sans', sans-serif"
     id="tspan558"
     font-weight="400"
     font-size="635px"
     class="TextParagraph"><tspan
       id="tspan548"
       y="9859"
       x="10438"
       class="TextPosition"><tspan
         style="fill:#000000;stroke:none"
         id="tspan546">unencrypted DNS</tspan></tspan><tspan
       id="tspan552"
       y="10570"
       x="10438"
       class="TextPosition"><tspan
         style="fill:#000000;stroke:none"
         id="tspan550">DNS-over-TLS</tspan></tspan><tspan
       id="tspan556"
       y="11281"
       x="10438"
       class="TextPosition"><tspan
         style="fill:#000000;stroke:none"
         id="tspan554">DNS-over-HTTPS</tspan></tspan></tspan><tspan
     style="font-weight:400;font-size:635px;font-family:'Liberation Sans', sans-serif"
     id="tspan564"
     font-weight="400"
     font-size="635px"
     class="TextParagraph"><tspan
       id="tspan562"
       y="11992"
       x="10438"
       class="TextPosition"><tspan
         style="fill:#000000;stroke:none"
         id="tspan560">HTTP management API</tspan></tspan></tspan></text>

       </g>
      </g>
      <g
   id="g610"
   class="com.sun.star.drawing.LineShape">
       <g
   id="id19">
        <rect
   style="fill:none;stroke:none"
   id="rect571"
   height="101"
   width="7151"
   y="14550"
   x="11350"
   class="BoundingBox" />
        <path
   style="fill:none;stroke:#666666;stroke-width:100;stroke-linejoin:round"
   id="path573"
   d="m 11400,14600 h 197" />
        <path
   style="fill:none;stroke:#666666;stroke-width:100;stroke-linejoin:round"
   id="path575"
   d="m 11794,14600 h 197" />
        <path
   style="fill:none;stroke:#666666;stroke-width:100;stroke-linejoin:round"
   id="path577"
   d="m 12188,14600 h 197" />
        <path
   style="fill:none;stroke:#666666;stroke-width:100;stroke-linejoin:round"
   id="path579"
   d="m 12582,14600 h 197" />
        <path
   style="fill:none;stroke:#666666;stroke-width:100;stroke-linejoin:round"
   id="path581"
   d="m 12976,14600 h 197" />
        <path
   style="fill:none;stroke:#666666;stroke-width:100;stroke-linejoin:round"
   id="path583"
   d="m 13370,14600 h 197" />
        <path
   style="fill:none;stroke:#666666;stroke-width:100;stroke-linejoin:round"
   id="path585"
   d="m 13764,14600 h 197" />
        <path
   style="fill:none;stroke:#666666;stroke-width:100;stroke-linejoin:round"
   id="path587"
   d="m 14158,14600 h 197" />
        <path
   style="fill:none;stroke:#666666;stroke-width:100;stroke-linejoin:round"
   id="path589"
   d="m 14552,14600 h 197" />
        <path
   style="fill:none;stroke:#666666;stroke-width:100;stroke-linejoin:round"
   id="path591"
   d="m 14946,14600 h 197" />
        <path
   style="fill:none;stroke:#666666;stroke-width:100;stroke-linejoin:round"
   id="path593"
   d="m 15340,14600 h 197" />
        <path
   style="fill:none;stroke:#666666;stroke-width:100;stroke-linejoin:round"
   id="path595"
   d="m 15734,14600 h 197" />
        <path
   style="fill:none;stroke:#666666;stroke-width:100;stroke-linejoin:round"
   id="path597"
   d="m 16128,14600 h 197" />
        <path
   style="fill:none;stroke:#666666;stroke-width:100;stroke-linejoin:round"
   id="path599"
   d="m 16522,14600 h 197" />
        <path
   style="fill:none;stroke:#666666;stroke-width:100;stroke-linejoin:round"
   id="path601"
   d="m 16916,14600 h 197" />
        <path
   style="fill:none;stroke:#666666;stroke-width:100;stroke-linejoin:round"
   id="path603"
   d="m 17310,14600 h 197" />
        <path
   style="fill:none;stroke:#666666;stroke-width:100;stroke-linejoin:round"
   id="path605"
   d="m 17704,14600 h 197" />
        <path
   style="fill:none;stroke:#666666;stroke-width:100;stroke-linejoin:round"
   id="path607"
   d="m 18098,14600 h 197" />
       </g>
      </g>
      <g
   id="g651"
   class="com.sun.star.drawing.LineShape">
       <g
   id="id20">
        <rect
   style="fill:none;stroke:none"
   id="rect612"
   height="101"
   width="7151"
   y="14550"
   x="1750"
   class="BoundingBox" />
        <path
   style="fill:none;stroke:#666666;stroke-width:100;stroke-linejoin:round"
   id="path614"
   d="m 1800,14600 h 197" />
        <path
   style="fill:none;stroke:#666666;stroke-width:100;stroke-linejoin:round"
   id="path616"
   d="m 2194,14600 h 197" />
        <path
   style="fill:none;stroke:#666666;stroke-width:100;stroke-linejoin:round"
   id="path618"
   d="m 2588,14600 h 197" />
        <path
   style="fill:none;stroke:#666666;stroke-width:100;stroke-linejoin:round"
   id="path620"
   d="m 2982,14600 h 197" />
        <path
   style="fill:none;stroke:#666666;stroke-width:100;stroke-linejoin:round"
   id="path622"
   d="m 3376,14600 h 197" />
        <path
   style="fill:none;stroke:#666666;stroke-width:100;stroke-linejoin:round"
   id="path624"
   d="m 3770,14600 h 197" />
        <path
   style="fill:none;stroke:#666666;stroke-width:100;stroke-linejoin:round"
   id="path626"
   d="m 4164,14600 h 197" />
        <path
   style="fill:none;stroke:#666666;stroke-width:100;stroke-linejoin:round"
   id="path628"
   d="m 4558,14600 h 197" />
        <path
   style="fill:none;stroke:#666666;stroke-width:100;stroke-linejoin:round"
   id="path630"
   d="m 4952,14600 h 197" />
        <path
   style="fill:none;stroke:#666666;stroke-width:100;stroke-linejoin:round"
   id="path632"
   d="m 5346,14600 h 197" />
        <path
   style="fill:none;stroke:#666666;stroke-width:100;stroke-linejoin:round"
   id="path634"
   d="m 5740,14600 h 197" />
        <path
   style="fill:none;stroke:#666666;stroke-width:100;stroke-linejoin:round"
   id="path636"
   d="m 6134,14600 h 197" />
        <path
   style="fill:none;stroke:#666666;stroke-width:100;stroke-linejoin:round"
   id="path638"
   d="m 6528,14600 h 197" />
        <path
   style="fill:none;stroke:#666666;stroke-width:100;stroke-linejoin:round"
   id="path640"
   d="m 6922,14600 h 197" />
        <path
   style="fill:none;stroke:#666666;stroke-width:100;stroke-linejoin:round"
   id="path642"
   d="m 7316,14600 h 197" />
        <path
   style="fill:none;stroke:#666666;stroke-width:100;stroke-linejoin:round"
   id="path644"
   d="m 7710,14600 h 197" />
        <path
   style="fill:none;stroke:#666666;stroke-width:100;stroke-linejoin:round"
   id="path646"
   d="m 8104,14600 h 197" />
        <path
   style="fill:none;stroke:#666666;stroke-width:100;stroke-linejoin:round"
   id="path648"
   d="m 8498,14600 h 197" />
       </g>
      </g>
      <g
   id="g664"
   class="com.sun.star.drawing.TextShape">
       <g
   id="id21">
        <rect
   style="fill:none;stroke:none"
   id="rect653"
   height="963"
   width="3822"
   y="13600"
   x="11200"
   class="BoundingBox" />
        <text
   id="text661"
   class="TextShape"><tspan
     style="font-style:italic;font-weight:400;font-size:635px;font-family:'Liberation Sans', sans-serif"
     id="tspan659"
     font-weight="400"
     font-style="italic"
     font-size="635px"
     class="TextParagraph"><tspan
       id="tspan657"
       y="14301"
       x="11450"
       class="TextPosition"><tspan
         style="fill:#000000;stroke:none"
         id="tspan655">... as server</tspan></tspan></tspan></text>

       </g>
      </g>
      <g
   id="g677"
   class="com.sun.star.drawing.TextShape">
       <g
   id="id22">
        <rect
   style="fill:none;stroke:none"
   id="rect666"
   height="963"
   width="3538"
   y="14600"
   x="11200"
   class="BoundingBox" />
        <text
   id="text674"
   class="TextShape"><tspan
     style="font-style:italic;font-weight:400;font-size:635px;font-family:'Liberation Sans', sans-serif"
     id="tspan672"
     font-weight="400"
     font-style="italic"
     font-size="635px"
     class="TextParagraph"><tspan
       id="tspan670"
       y="15301"
       x="11450"
       class="TextPosition"><tspan
         style="fill:#000000;stroke:none"
         id="tspan668">... as client</tspan></tspan></tspan></text>

       </g>
      </g>
     </g>
    </g>
   </g>
  </g>
 </g>
</svg>